# xmcd
#
# Track frame offsets:
#	150
#	41844
#	96101
#	121571
#	143089
#	172524
#	192689
#	221867
#	253478
#	273278
#
# Disc length: 3944 seconds
#
# Revision: 0
# Processed by: cddbd v1.5.2PL0 Copyright (c) Steve Scherf et al.
# Submitted via: audiograbber 1.83.01
#
DISCID=920f660a
DTITLE=Notting Hillbillies - Live in London R.S. 98
DYEAR=1998
DGENRE=Rock
TTITLE0=Blues stay away from me
TTITLE1=Calling Elvis
TTITLE2=Mississipi blues
TTITLE3=Mystery train
TTITLE4=Are we in trouble now
TTITLE5=Setting me up
TTITLE6=Feel like going home
TTITLE7=His latest flame
TTITLE8=The long highway
TTITLE9=The next time i'm in town
EXTD=
EXTT0=
EXTT1=
EXTT2=
EXTT3=
EXTT4=
EXTT5=
EXTT6=
EXTT7=
EXTT8=
EXTT9=
PLAYORDER=
